<svg width="48" height="48" viewBox="0 0 48 48" fill="none" xmlns="http://www.w3.org/2000/svg">
  <rect width="48" height="48" rx="12" fill="#050A32"/>
  <rect x="6" y="6" width="36" height="36" rx="10" fill="#0A124A"/>
  <path d="M15 16.5C15 15.1193 16.1193 14 17.5 14H24C27.3137 14 30 16.6863 30 20C30 23.3137 27.3137 26 24 26H20.5V30.5C20.5 31.8807 19.3807 33 18 33H17.5C16.1193 33 15 31.8807 15 30.5V16.5Z" fill="#0095F2"/>
  <path d="M27 22H30.25C32.5972 22 34.5 23.9028 34.5 26.25C34.5 28.5972 32.5972 30.5 30.25 30.5H25.5C24.1193 30.5 23 31.6193 23 33C23 34.3807 24.1193 35.5 25.5 35.5H30.5" stroke="#7BDAFF" stroke-width="2.2" stroke-linecap="round"/>
  <circle cx="24" cy="13" r="2" fill="#7BDAFF"/>
  <circle cx="15" cy="20" r="2" fill="#7BDAFF"/>
</svg>
